<svg xmlns="http://www.w3.org/2000/svg" xmlns:xlink="http://www.w3.org/1999/xlink" version="1.1" x="0px" y="0px" viewBox="0 0 100 125" enable-background="new 0 0 100 100" xml:space="preserve"><path fill="#000000" stroke="#231F20" stroke-width="0.6625" stroke-linecap="round" stroke-miterlimit="10" d="M52.073,77.66"/><path fill="#000000" d="M88.561,46.973C72.563,24.028,58.842,23.825,50.543,35.477c-8.299-11.652-22.021-11.449-38.018,11.496  C10.171,50.482,7.164,54,1.505,54c16.424,2.34,15.091,21.564,49.038,21.564C86.242,75.564,82.397,55.17,99.58,54  C93.922,54,90.906,50.482,88.561,46.973z"/><g><path fill="none" d="M50.186,35.992c0.122-0.171,0.235-0.343,0.357-0.515c8.299-11.652,22.021-11.449,38.018,11.496"/><path fill="none" d="M88.561,46.973C90.906,50.482,93.922,54,99.58,54"/><path fill="none" d="M99.58,54c-17.183,1.17-13.338,21.564-49.037,21.564"/><path fill="none" d="M50.9,35.992c-0.122-0.171-0.235-0.343-0.357-0.515c-8.299-11.652-22.021-11.449-38.018,11.496"/><path fill="none" d="M12.525,46.973C10.171,50.482,7.164,54,1.505,54"/><path fill="none" d="M1.505,54c16.424,2.34,15.091,21.564,49.038,21.564"/></g><text x="0" y="115" fill="#ffffff" font-size="5px" font-weight="bold" font-family="'Helvetica Neue', Helvetica, Arial-Unicode, Arial, Sans-serif">Created by Blake Thompson</text><text x="0" y="120" fill="#ffffff" font-size="5px" font-weight="bold" font-family="'Helvetica Neue', Helvetica, Arial-Unicode, Arial, Sans-serif">from the Noun Project</text></svg>